<?xml version="1.0" encoding="UTF-8"?>
<svg version="1.1" xmlns="http://www.w3.org/2000/svg" width="500" height="500">
<path d="M0 0 C165 0 330 0 500 0 C500 165 500 330 500 500 C335 500 170 500 0 500 C0 335 0 170 0 0 Z " fill="#F9F9F9" transform="translate(0,0)"/>
<path d="M0 0 C4.30675561 2.3477535 7.13020845 5.47638075 9 10 C8.92614746 12.1149292 8.92614746 12.1149292 8.64648438 14.31542969 C8.59164552 17.15820063 8.65196503 18.52631893 10.35083008 20.83850098 C12.37534281 22.66725153 14.47647374 24.3125773 16.65625 25.953125 C18.2615539 27.27843657 19.85920525 28.61306009 21.44995117 29.95581055 C22.27933197 30.65394867 23.10871277 31.35208679 23.96322632 32.07138062 C44.20801623 49.45791062 44.20801623 49.45791062 46.08602905 63.15957642 C46.99235754 75.141808 45.84011451 87.15451561 44 99 C48.62 99 53.24 99 58 99 C58 85.14 58 71.28 58 57 C60.475 56.505 60.475 56.505 63 56 C64 57 64 57 64.11352539 60.96899414 C64.1133662 62.74105607 64.10766785 64.5131226 64.09765625 66.28515625 C64.09553383 67.68138466 64.09553383 67.68138466 64.09336853 69.1058197 C64.08775172 72.09141191 64.0751964 75.07693029 64.0625 78.0625 C64.05748716 80.08137913 64.05292388 82.10025943 64.04882812 84.11914062 C64.03777683 89.07945572 64.02050095 94.03971532 64 99 C68.29 99.33 72.58 99.66 77 100 C77 83.83 77 67.66 77 51 C75.35 50.67 73.7 50.34 72 50 C67.55388318 45.30687669 66.68766739 41.47092211 66.7890625 35.21484375 C67.22396317 30.64838671 69.31565327 28.58885649 72.6875 25.6875 C76.72918168 23.62853009 79.5595042 23.27175869 84 24 C88.66018963 25.7027616 91.47755931 27.70250846 94 32 C95.20567943 36.46762034 95.37006959 39.91035066 93.875 44.3125 C91.84795211 47.2179353 89.96775184 49.07096131 87 51 C86.01 51 85.02 51 84 51 C84 66.51 84 82.02 84 98 C88.29 97.01 92.58 96.02 97 95 C113.22970721 93.5187804 128.58123322 97.79104241 142 107 C142.67546875 106.278125 143.3509375 105.55625 144.046875 104.8125 C144.93890625 103.884375 145.8309375 102.95625 146.75 102 C147.63171875 101.071875 148.5134375 100.14375 149.421875 99.1875 C152 97 152 97 156 97 C156 112.51 156 128.02 156 144 C155.01 143.67 154.02 143.34 153 143 C151.95571123 140.72837185 151.08275565 138.53532074 150.25 136.1875 C144.97413338 122.28066089 138.38059027 110.51942429 124.4921875 104.0078125 C123.66976562 103.67523438 122.84734375 103.34265625 122 103 C121.11183594 102.63261719 120.22367188 102.26523438 119.30859375 101.88671875 C114.88809981 100.7020055 110.74378047 100.67048626 106.1875 100.6875 C105.33607422 100.67138672 104.48464844 100.65527344 103.60742188 100.63867188 C93.75520829 100.63116829 86.33871018 103.45335325 79 110 C64.32472835 124.67527165 63.63407195 147.50228763 63 167 C54.09 167 45.18 167 36 167 C36 160.74898747 36.16848253 157.50311963 37.9375 151.875 C39.27139083 147.58168831 40.35710662 143.45288259 41 139 C39.02 139.33 37.04 139.66 35 140 C34.67 142.97 34.34 145.94 34 149 C32.25531628 149.70088156 30.50398839 150.38524009 28.75 151.0625 C27.77546875 151.44535156 26.8009375 151.82820312 25.796875 152.22265625 C22.92378054 153.0211839 21.71751866 153.10624653 19 152 C18.01 151.2265625 18.01 151.2265625 17 150.4375 C14.86915768 148.6109093 14.86915768 148.6109093 11 149 C11.4116765 151.96407083 11.69219041 153.64658899 13.6875 155.9375 C14.120625 156.618125 14.55375 157.29875 15 158 C14.1932182 161.59384618 13.04691418 163.92962873 11 167 C7.9609375 167.29296875 7.9609375 167.29296875 4.375 167.1875 C3.18648438 167.16042969 1.99796875 167.13335937 0.7734375 167.10546875 C-0.14179688 167.07066406 -1.05703125 167.03585938 -2 167 C0 165 0 165 2.625 164.875 C3.40875 164.91625 4.1925 164.9575 5 165 C5.85637238 162.07406105 6.38673104 159.91825712 5.17578125 157.04296875 C4.17852152 155.32488268 3.09427085 153.65798613 2 152 C1.18618205 153.93694678 0.37399084 155.87457711 -0.4375 157.8125 C-0.88996094 158.89144531 -1.34242188 159.97039062 -1.80859375 161.08203125 C-2.60375013 163.0295126 -3.33479648 165.00438943 -4 167 C-5.65 167 -7.3 167 -9 167 C-7.60103914 160.17930219 -5.7109193 153.66502448 -3.5234375 147.05859375 C-3.19332672 146.05031021 -2.86321594 145.04202667 -2.52310181 144.00318909 C-1.47772782 140.8132991 -0.4264653 137.62538667 0.625 134.4375 C1.33893311 132.26249824 2.05247867 130.08736923 2.765625 127.91210938 C4.50593889 122.60659099 6.25153307 117.30283681 8 112 C1.4 112 -5.2 112 -12 112 C-12 110.68 -12 109.36 -12 108 C-16.62 108.99 -21.24 109.98 -26 111 C-27.35288881 116.76817448 -28.45286004 122.42084986 -29.0625 128.3125 C-29.1860083 129.48196167 -29.1860083 129.48196167 -29.31201172 130.67504883 C-30.47815888 142.74178549 -30.67935758 154.88727647 -31 167 C-33.31 167 -35.62 167 -38 167 C-38 163.37 -38 159.74 -38 156 C-43.61 156 -49.22 156 -55 156 C-54.01 159.63 -53.02 163.26 -52 167 C-59.26 167 -66.52 167 -74 167 C-74.96421875 164.16792969 -75.9284375 161.33585938 -76.921875 158.41796875 C-77.86822043 155.64094005 -78.81495163 152.86404315 -79.76171875 150.0871582 C-80.41381393 148.17388387 -81.0655151 146.2604752 -81.71679688 144.34692383 C-82.65909076 141.57857424 -83.60264548 138.81065869 -84.546875 136.04296875 C-84.85040894 135.15229706 -85.15394287 134.26162537 -85.4666748 133.34396362 C-87.34738242 127.84546477 -89.293038 122.37871288 -91.37988281 116.9543457 C-92 115 -92 115 -92 112 C-98.93 112 -105.86 112 -113 112 C-113 110.68 -113 109.36 -113 108 C-92.21 108 -71.42 108 -50 108 C-50 109.32 -50 110.64 -50 112 C-56.6 112 -63.2 112 -70 112 C-68.35780037 116.84756074 -68.35780037 116.84756074 -66.70898438 121.69287109 C-65 126.77777778 -65 126.77777778 -65 129 C-55.43 129 -45.86 129 -36 129 C-35.46408059 124.00595763 -35.46408059 124.00595763 -34.95385742 119.00927734 C-34.27983294 113.20603703 -32.96037756 108.68032362 -28.375 104.75 C-22.32921689 101.6151495 -16.747007 100.95612829 -10 101 C-10.01047363 99.70787598 -10.02094727 98.41575195 -10.03173828 97.08447266 C-10.06786719 92.30243691 -10.09087451 87.52041327 -10.10986328 82.73828125 C-10.11993712 80.66632053 -10.13359666 78.59437407 -10.15087891 76.52246094 C-10.17506664 73.54879236 -10.18646908 70.5753113 -10.1953125 67.6015625 C-10.21079636 66.20618759 -10.21079636 66.20618759 -10.22659302 64.78262329 C-10.22674408 63.92188202 -10.22689514 63.06114075 -10.22705078 62.17431641 C-10.231492 61.41486725 -10.23593323 60.65541809 -10.24050903 59.87295532 C-10 58 -10 58 -8 56 C-6.35 56.33 -4.7 56.66 -3 57 C-3 71.19 -3 85.38 -3 100 C-1.68 99.67 -0.36 99.34 1 99 C3.08234592 98.93256652 5.16668557 98.91485528 7.25 98.9375 C8.32765625 98.94652344 9.4053125 98.95554687 10.515625 98.96484375 C11.33546875 98.97644531 12.1553125 98.98804688 13 99 C12.99476318 98.2479126 12.98952637 97.4958252 12.98413086 96.72094727 C12.96342773 93.33480658 12.95036123 89.94867916 12.9375 86.5625 C12.92912109 85.37849609 12.92074219 84.19449219 12.91210938 82.97460938 C12.90888672 81.84990234 12.90566406 80.72519531 12.90234375 79.56640625 C12.89710693 78.52427979 12.89187012 77.48215332 12.88647461 76.40844727 C13 74 13 74 14 73 C16.5 72.875 16.5 72.875 19 73 C20 74 20 74 20.11352539 76.40844727 C20.10828857 77.45057373 20.10305176 78.4927002 20.09765625 79.56640625 C20.09443359 80.69111328 20.09121094 81.81582031 20.08789062 82.97460938 C20.07951172 84.15861328 20.07113281 85.34261719 20.0625 86.5625 C20.05798828 87.75037109 20.05347656 88.93824219 20.04882812 90.16210938 C20.03699686 93.10809412 20.01906076 96.05405316 20 99 C25.61 99 31.22 99 37 99 C39.54206871 73.7883024 39.54206871 73.7883024 32.39453125 50.70703125 C29.01920179 47.10730315 25.25586812 44.26309765 21.13989258 41.56152344 C17.50446905 38.90868044 14.84929383 35.44909621 12 32 C10.70587997 30.64882001 9.39902539 29.30924937 8.0625 28 C7.47597656 27.4225 6.88945312 26.845 6.28515625 26.25 C5.86105469 25.8375 5.43695313 25.425 5 25 C4.28585938 25.3196875 3.57171875 25.639375 2.8359375 25.96875 C-1.78150411 27.64781968 -6.16342926 27.80839825 -11 27 C-15.03227341 24.76533099 -17.53768799 22.38693602 -19 18 C-19.4906917 13.92725886 -19.9487216 9.79854173 -17.98828125 6.08203125 C-12.82367078 -0.19925175 -7.77171616 -1.25734878 0 0 Z " fill="#F4DDB2" transform="translate(216,63)"/>
<path d="M0 0 C0.66 0 1.32 0 2 0 C2 8.58 2 17.16 2 26 C2.66 26 3.32 26 4 26 C4.33 19.73 4.66 13.46 5 7 C5.33 7 5.66 7 6 7 C6 13.27 6 19.54 6 26 C6.66 26 7.32 26 8 26 C8.33 22.04 8.66 18.08 9 14 C12.96 13.67 16.92 13.34 21 13 C21 13.66 21 14.32 21 15 C17.37 15 13.74 15 10 15 C10 18.63 10 22.26 10 26 C11.65 26 13.3 26 15 26 C15 27.65 15 29.3 15 31 C18.96 31.33 22.92 31.66 27 32 C27 32.33 27 32.66 27 33 C21.06 33.495 21.06 33.495 15 34 C15 34.66 15 35.32 15 36 C15.66 36 16.32 36 17 36 C17 36.66 17 37.32 17 38 C16.34 38 15.68 38 15 38 C15 39.65 15 41.3 15 43 C13.68 43 12.36 43 11 43 C10.67 46.96 10.34 50.92 10 55 C13.63 55 17.26 55 21 55 C21 55.66 21 56.32 21 57 C19.18757948 57.02687279 17.37504767 57.04633715 15.5625 57.0625 C14.55316406 57.07410156 13.54382813 57.08570313 12.50390625 57.09765625 C10 57 10 57 9 56 C8.92741054 53.81360547 8.91626217 51.62499611 8.9375 49.4375 C8.94652344 48.23996094 8.95554687 47.04242188 8.96484375 45.80859375 C8.98224609 44.41833984 8.98224609 44.41833984 9 43 C8.34 43 7.68 43 7 43 C7 48.61 7 54.22 7 60 C10.3 60 13.6 60 17 60 C16.34 60.66 15.68 61.32 15 62 C11.61922339 61.96674646 8.36043621 61.43082516 5 61 C5 55.06 5 49.12 5 43 C4.34 43 3.68 43 3 43 C2.67 48.94 2.34 54.88 2 61 C1.34 60.67 0.68 60.34 0 60 C0.33 54.39 0.66 48.78 1 43 C0.01 43 -0.98 43 -2 43 C-2 50.92 -2 58.84 -2 67 C-4.97 67 -7.94 67 -11 67 C-11 66.67 -11 66.34 -11 66 C-8.36 66 -5.72 66 -3 66 C-3 58.41 -3 50.82 -3 43 C-3.99 43 -4.98 43 -6 43 C-6 49.6 -6 56.2 -6 63 C-6.66 63 -7.32 63 -8 63 C-8 56.4 -8 49.8 -8 43 C-8.66 43 -9.32 43 -10 43 C-10.33 50.26 -10.66 57.52 -11 65 C-13.64 65 -16.28 65 -19 65 C-19 64.67 -19 64.34 -19 64 C-16.69 64 -14.38 64 -12 64 C-12 57.07 -12 50.14 -12 43 C-12.66 43 -13.32 43 -14 43 C-14.33 46.63 -14.66 50.26 -15 54 C-19.455 54.495 -19.455 54.495 -24 55 C-24 54.34 -24 53.68 -24 53 C-21.36 53 -18.72 53 -16 53 C-16 49.7 -16 46.4 -16 43 C-16.99 43 -17.98 43 -19 43 C-19 42.01 -19 41.02 -19 40 C-22.96 39.67 -26.92 39.34 -31 39 C-31 41.97 -31 44.94 -31 48 C-29.02 48 -27.04 48 -25 48 C-24.15619078 60.44618607 -28.4941713 72.50613656 -36.671875 81.92578125 C-48.03306563 92.87427906 -62.30116158 96.06254746 -77.5625 96.25 C-78.23450439 96.2595874 -78.90650879 96.2691748 -79.59887695 96.27905273 C-85.5317294 96.23980957 -91.19776617 95.17911383 -97 94 C-97.01981934 95.20124512 -97.03963867 96.40249023 -97.06005859 97.64013672 C-97.1359962 102.08696854 -97.22473132 106.53346805 -97.31738281 110.97998047 C-97.35572168 112.90634614 -97.39056582 114.8327846 -97.421875 116.75927734 C-97.46741945 119.52467918 -97.52543037 122.28957769 -97.5859375 125.0546875 C-97.59748871 125.9193161 -97.60903992 126.7839447 -97.62094116 127.67477417 C-97.77225659 133.77225659 -97.77225659 133.77225659 -100 136 C-103.53571429 135.46428571 -103.53571429 135.46428571 -105 134 C-105.09268999 132.64905018 -105.11747326 131.29332909 -105.11352539 129.93920898 C-105.11344986 129.07839218 -105.11337433 128.21757538 -105.11329651 127.33067322 C-105.10813522 126.39526199 -105.10297394 125.45985077 -105.09765625 124.49609375 C-105.09553383 123.06657127 -105.09553383 123.06657127 -105.09336853 121.60816956 C-105.08775152 118.55124835 -105.07519616 115.49439923 -105.0625 112.4375 C-105.05748719 110.37044376 -105.05292391 108.30338638 -105.04882812 106.23632812 C-105.03777656 101.15752412 -105.02050055 96.0787743 -105 91 C-105.87914062 91.16371094 -106.75828125 91.32742188 -107.6640625 91.49609375 C-110.64429831 91.94626989 -113.36934661 92.10311694 -116.375 92.0625 C-117.24898438 92.05347656 -118.12296875 92.04445313 -119.0234375 92.03515625 C-119.67570312 92.02355469 -120.32796875 92.01195312 -121 92 C-120.99476318 92.78238037 -120.98952637 93.56476074 -120.98413086 94.37084961 C-120.96342894 97.89305833 -120.95036162 101.4152543 -120.9375 104.9375 C-120.92912109 106.16919922 -120.92074219 107.40089844 -120.91210938 108.66992188 C-120.90888672 109.83974609 -120.90566406 111.00957031 -120.90234375 112.21484375 C-120.89710693 113.29886475 -120.89187012 114.38288574 -120.88647461 115.49975586 C-121 118 -121 118 -122 119 C-123.65 119 -125.3 119 -127 119 C-127 110.42 -127 101.84 -127 93 C-132.94 93 -138.88 93 -145 93 C-145.15702287 98.75321486 -145.27203585 104.47881637 -145.28686523 110.23022461 C-145.30375631 112.17881169 -145.34357155 114.12735492 -145.40795898 116.07495117 C-146.05596499 128.39841855 -146.05596499 128.39841855 -141.01708984 139.19384766 C-138.7543088 141.56948815 -136.35267769 143.67332055 -133.79760742 145.7277832 C-132.87439697 146.47761475 -131.95118652 147.22744629 -131 148 C-131 148.66 -131 149.32 -131 150 C-130.12359863 150.38744385 -130.12359863 150.38744385 -129.22949219 150.78271484 C-126.82283378 152.09673136 -125.24680663 153.52480015 -123.328125 155.4765625 C-122.66425781 156.146875 -122.00039063 156.8171875 -121.31640625 157.5078125 C-120.29353516 158.55582031 -120.29353516 158.55582031 -119.25 159.625 C-118.55261719 160.33140625 -117.85523438 161.0378125 -117.13671875 161.765625 C-115.41987512 163.50598703 -113.70788168 165.25084981 -112 167 C-111.08089844 166.51402344 -110.16179687 166.02804687 -109.21484375 165.52734375 C-104.98427843 163.51743969 -101.6367312 163.06938899 -97.140625 164.65625 C-93.18161 166.61883863 -90.56196989 169.03123939 -88.6015625 173.01171875 C-87.43816794 176.8569644 -87.72146518 180.21766782 -89 184 C-91.42014907 187.86071399 -93.63120899 190.54373633 -98 192 C-103.62391086 192.36878104 -107.13512635 192.1678247 -112 189 C-114.91806818 185.85445385 -115.26621971 183.71557124 -115.48046875 179.5 C-116.72692016 171.04826358 -122.35040899 166.5108422 -128.3125 161 C-129.37138927 159.9828044 -130.42804978 158.96328337 -131.48242188 157.94140625 C-135.83437161 153.75538763 -140.23850877 149.72090756 -145 146 C-145.33 146.99 -145.66 147.98 -146 149 C-146.66 149 -147.32 149 -148 149 C-148.05607422 148.06027344 -148.05607422 148.06027344 -148.11328125 147.1015625 C-148.17902344 146.28429687 -148.24476563 145.46703125 -148.3125 144.625 C-148.37050781 143.81289063 -148.42851562 143.00078125 -148.48828125 142.1640625 C-148.82990528 139.62078662 -148.82990528 139.62078662 -152 138 C-152.36076355 136.08908081 -152.36076355 136.08908081 -152.34057617 133.73388672 C-152.34034958 132.85312469 -152.34012299 131.97236267 -152.33988953 131.06491089 C-152.32440567 130.11278717 -152.30892181 129.16066345 -152.29296875 128.1796875 C-152.28872391 127.20589142 -152.28447906 126.23209534 -152.28010559 125.22879028 C-152.26327786 122.11058195 -152.22561811 118.99301383 -152.1875 115.875 C-152.17245846 113.76433223 -152.15876914 111.65365436 -152.14648438 109.54296875 C-152.11336091 104.36173151 -152.06155051 99.18097439 -152 94 C-156.29 93.67 -160.58 93.34 -165 93 C-164.98952637 94.23153809 -164.97905273 95.46307617 -164.96826172 96.73193359 C-164.93212911 101.29033515 -164.90912415 105.84872398 -164.89013672 110.40722656 C-164.88006373 112.38218309 -164.86640479 114.35712466 -164.84912109 116.33203125 C-164.82492961 119.16670418 -164.81353009 122.00118038 -164.8046875 124.8359375 C-164.79436493 125.72243988 -164.78404236 126.60894226 -164.77340698 127.52230835 C-164.7730093 129.68285952 -164.87727466 131.84293718 -165 134 C-165.66 134.66 -166.32 135.32 -167 136 C-170.53571429 135.46428571 -170.53571429 135.46428571 -172 134 C-172.08871273 130.97022196 -172.1151935 127.96332978 -172.09765625 124.93359375 C-172.0962413 124.02497086 -172.09482635 123.11634796 -172.09336853 122.18019104 C-172.08775193 119.26592779 -172.07519665 116.35174019 -172.0625 113.4375 C-172.05748714 111.46679798 -172.05292386 109.49609476 -172.04882812 107.52539062 C-172.03777711 102.68356441 -172.02050138 97.84179505 -172 93 C-172.60328125 93.01160156 -173.2065625 93.02320313 -173.828125 93.03515625 C-174.62734375 93.04417969 -175.4265625 93.05320312 -176.25 93.0625 C-177.43335938 93.07990234 -177.43335938 93.07990234 -178.640625 93.09765625 C-180.90691002 93.00385306 -182.8288895 92.63241063 -185 92 C-185.00908208 98.76327774 -184.97184568 105.52516211 -184.90234375 112.28808594 C-184.88417162 114.5888076 -184.87661743 116.88963857 -184.87988281 119.19042969 C-184.88273629 122.49760706 -184.84745706 125.80251198 -184.8046875 129.109375 C-184.81378143 130.13867126 -184.82287537 131.16796753 -184.83224487 132.22845459 C-184.7767569 134.95270562 -184.67999004 137.36097894 -184 140 C-181.19859439 142.70611202 -181.19859439 142.70611202 -178 144 C-177.67 144.33 -177.34 144.66 -177 145 C-176.67 143.68 -176.34 142.36 -176 141 C-174.02 141 -172.04 141 -170 141 C-169.375 143.375 -169.375 143.375 -169 146 C-169.66 146.66 -170.32 147.32 -171 148 C-171.99 147.67 -172.98 147.34 -174 147 C-173.96519531 147.65226563 -173.93039063 148.30453125 -173.89453125 148.9765625 C-173.72546395 154.43502118 -173.79067373 158.35201023 -177 163 C-181.36088985 167.03382311 -184.85963429 168.42524458 -190.8671875 168.34765625 C-194.68604766 167.72516806 -197.30782798 165.69217202 -200 163 C-202.66062229 158.83554773 -202.68605158 153.80236103 -202 149 C-200.20368538 145.40737076 -199.21079833 143.4543762 -195.3996582 142.02416992 C-192.83096518 140.27322871 -192.83096518 140.27322871 -192.52328491 137.83999634 C-192.32140443 134.8803077 -192.28192418 131.95491465 -192.29296875 128.98828125 C-192.27784744 127.90491989 -192.26272614 126.82155853 -192.24714661 125.70536804 C-192.20411566 122.24086951 -192.19541639 118.77723965 -192.1875 115.3125 C-192.1643678 112.96547145 -192.13900515 110.61846373 -192.11132812 108.27148438 C-192.04832383 102.51431483 -192.01351175 96.75748686 -192 91 C-193.03447266 90.83564453 -193.03447266 90.83564453 -194.08984375 90.66796875 C-195.02957031 90.50941406 -195.96929687 90.35085938 -196.9375 90.1875 C-197.85402344 90.03667969 -198.77054688 89.88585937 -199.71484375 89.73046875 C-203.89250157 88.8015484 -207.93993274 87.35335575 -212 86 C-214.31 92.93 -216.62 99.86 -219 107 C-220.65 107 -222.3 107 -224 107 C-226.4808153 99.6038411 -228.95841261 92.20661292 -231.43187714 84.80799294 C-232.58043691 81.37276243 -233.73011289 77.93791388 -234.88232422 74.50390625 C-235.99368287 71.19151928 -237.10212971 67.87817122 -238.20854187 64.56412888 C-238.83804726 62.68112083 -239.47058476 60.79912732 -240.10314941 58.91714478 C-240.4835437 57.77611298 -240.86393799 56.63508118 -241.25585938 55.45947266 C-241.76215881 53.94723618 -241.76215881 53.94723618 -242.27868652 52.40444946 C-243 50 -243 50 -243 48 C-235.74 48 -228.48 48 -221 48 C-219.845 51.238125 -218.69 54.47625 -217.5 57.8125 C-217.13455078 58.82932861 -216.76910156 59.84615723 -216.39257812 60.89379883 C-216.10833984 61.69841553 -215.82410156 62.50303223 -215.53125 63.33203125 C-215.23798828 64.15421143 -214.94472656 64.9763916 -214.64257812 65.82348633 C-214 68 -214 68 -214 71 C-213.34 71 -212.68 71 -212 71 C-211.88785156 70.18273437 -211.77570313 69.36546875 -211.66015625 68.5234375 C-210.89336521 64.43086045 -209.71469034 60.58178576 -208.4375 56.625 C-208.08655273 55.52091797 -208.08655273 55.52091797 -207.72851562 54.39453125 C-207.1559972 52.59518762 -206.57850686 50.79742723 -206 49 C-203.525 48.505 -203.525 48.505 -201 48 C-201.67998348 54.54702047 -203.71008574 60.27367402 -206.00390625 66.41601562 C-207.63349893 71.02019973 -208.35652596 74.12742114 -207 79 C-199.24423222 82.20067107 -191.96116457 83.92212672 -183.625 84.75 C-181.85237793 84.93212036 -181.85237793 84.93212036 -180.04394531 85.11791992 C-169.61858239 86.06927111 -159.21478037 86.29287074 -148.75 86.3125 C-147.98198059 86.31608521 -147.21396118 86.31967041 -146.42266846 86.32336426 C-135.80229034 86.35009364 -125.50487362 85.55789594 -115 84 C-115.67514648 83.42266113 -116.35029297 82.84532227 -117.04589844 82.25048828 C-127.80402276 72.97056275 -135.47611251 63.05484664 -141 50 C-141 49.34 -141 48.68 -141 48 C-133.41 48 -125.82 48 -118 48 C-117.46375 50.5575 -116.9275 53.115 -116.375 55.75 C-113.94827207 66.49252172 -110.05695729 78.01436806 -100.7109375 84.6171875 C-90.60541858 90.99801365 -80.70252801 92.19508963 -69 91 C-65.58396761 90.14714441 -62.92634328 88.93598693 -60 87 C-58.906875 86.29875 -57.81375 85.5975 -56.6875 84.875 C-49.56759435 77.25835675 -48.88936045 67.12102224 -48.4375 57.1875 C-48.37272461 55.86202148 -48.37272461 55.86202148 -48.30664062 54.50976562 C-48.20108464 52.34000377 -48.10008929 50.1700209 -48 48 C-43.05 47.67 -38.1 47.34 -33 47 C-32.67 44.03 -32.34 41.06 -32 38 C-27.71 38 -23.42 38 -19 38 C-19 37.34 -19 36.68 -19 36 C-25.6 35.67 -32.2 35.34 -39 35 C-39 31.04 -39 27.08 -39 23 C-38.34 23 -37.68 23 -37 23 C-37.33 26.63 -37.66 30.26 -38 34 C-31.73 34 -25.46 34 -19 34 C-19 33.34 -19 32.68 -19 32 C-23.95 31.67 -28.9 31.34 -34 31 C-34 30.67 -34 30.34 -34 30 C-29.05 29.67 -24.1 29.34 -19 29 C-19 28.01 -19 27.02 -19 26 C-18.34 26 -17.68 26 -17 26 C-17 25.34 -17 24.68 -17 24 C-20.63 24 -24.26 24 -28 24 C-28 23.34 -28 22.68 -28 22 C-25.87527424 21.94613371 -23.75016348 21.90726929 -21.625 21.875 C-19.84996094 21.84019531 -19.84996094 21.84019531 -18.0390625 21.8046875 C-15 22 -15 22 -13 24 C-12.34 22.68 -11.68 21.36 -11 20 C-10.67 21.98 -10.34 23.96 -10 26 C-9.34 26 -8.68 26 -8 26 C-8 23.03 -8 20.06 -8 17 C-9.98 17 -11.96 17 -14 17 C-14 13.7 -14 10.4 -14 7 C-13.67 7 -13.34 7 -13 7 C-13 9.97 -13 12.94 -13 16 C-11.02 16 -9.04 16 -7 16 C-6.67 19.3 -6.34 22.6 -6 26 C-5.34 26 -4.68 26 -4 26 C-4 25.34 -4 24.68 -4 24 C-3.34 24 -2.68 24 -2 24 C-2 24.66 -2 25.32 -2 26 C-1.34 26 -0.68 26 0 26 C0 17.42 0 8.84 0 0 Z " fill="#F4DDB3" transform="translate(399,222)"/>
<path d="M0 0 C0.67546875 -0.721875 1.3509375 -1.44375 2.046875 -2.1875 C3.38492188 -3.5796875 3.38492188 -3.5796875 4.75 -5 C5.63171875 -5.928125 6.5134375 -6.85625 7.421875 -7.8125 C10 -10 10 -10 14 -10 C14 5.51 14 21.02 14 37 C13.01 36.67 12.02 36.34 11 36 C9.95571123 33.72837185 9.08275565 31.53532074 8.25 29.1875 C2.97413338 15.28066089 -3.61940973 3.51942429 -17.5078125 -2.9921875 C-18.33023438 -3.32476562 -19.15265625 -3.65734375 -20 -4 C-20.88816406 -4.36738281 -21.77632812 -4.73476562 -22.69140625 -5.11328125 C-27.11190019 -6.2979945 -31.25621953 -6.32951374 -35.8125 -6.3125 C-36.66392578 -6.32861328 -37.51535156 -6.34472656 -38.39257812 -6.36132812 C-48.24479171 -6.36883171 -55.66128982 -3.54664675 -63 3 C-77.67527165 17.67527165 -78.36592805 40.50228763 -79 60 C-87.91 60 -96.82 60 -106 60 C-106 53.74898747 -105.83151747 50.50311963 -104.0625 44.875 C-102.72860917 40.58168831 -101.64289338 36.45288259 -101 32 C-103.97 32.495 -103.97 32.495 -107 33 C-107.33 35.97 -107.66 38.94 -108 42 C-109.74468372 42.70088156 -111.49601161 43.38524009 -113.25 44.0625 C-114.22453125 44.44535156 -115.1990625 44.82820313 -116.203125 45.22265625 C-119.07621946 46.0211839 -120.28248134 46.10624653 -123 45 C-123.66 44.484375 -124.32 43.96875 -125 43.4375 C-127.13084232 41.6109093 -127.13084232 41.6109093 -131 42 C-130.5883235 44.96407083 -130.30780959 46.64658899 -128.3125 48.9375 C-127.879375 49.618125 -127.44625 50.29875 -127 51 C-127.8067818 54.59384618 -128.95308582 56.92962873 -131 60 C-134.0390625 60.29296875 -134.0390625 60.29296875 -137.625 60.1875 C-138.81351563 60.16042969 -140.00203125 60.13335937 -141.2265625 60.10546875 C-142.14179688 60.07066406 -143.05703125 60.03585938 -144 60 C-142 58 -142 58 -139.375 57.875 C-138.59125 57.91625 -137.8075 57.9575 -137 58 C-136.14362762 55.07406105 -135.61326896 52.91825712 -136.82421875 50.04296875 C-137.82147848 48.32488268 -138.90572915 46.65798613 -140 45 C-140.81381795 46.93694678 -141.62600916 48.87457711 -142.4375 50.8125 C-143.11619141 52.43091797 -143.11619141 52.43091797 -143.80859375 54.08203125 C-144.60375013 56.0295126 -145.33479648 58.00438943 -146 60 C-147.65 60 -149.3 60 -151 60 C-149.60103914 53.17930219 -147.7109193 46.66502448 -145.5234375 40.05859375 C-145.19332672 39.05031021 -144.86321594 38.04202667 -144.52310181 37.00318909 C-143.47772782 33.8132991 -142.4264653 30.62538667 -141.375 27.4375 C-140.66106689 25.26249824 -139.94752133 23.08736923 -139.234375 20.91210938 C-137.49406111 15.60659099 -135.74846693 10.30283681 -134 5 C-140.6 5 -147.2 5 -154 5 C-154 3.68 -154 2.36 -154 1 C-140.14 1 -126.28 1 -112 1 C-112 2.32 -112 3.64 -112 5 C-117.61 5 -123.22 5 -129 5 C-129.53625 7.289375 -130.0725 9.57875 -130.625 11.9375 C-132.31728675 18.94327412 -134.51871412 25.67504867 -137.06884766 32.41381836 C-138.35479633 35.86768628 -139 38.25944346 -139 42 C-138.236875 41.05125 -137.47375 40.1025 -136.6875 39.125 C-134.84465954 36.83390105 -133.53162583 35.68775056 -131 34 C-126.3024205 33.5002575 -124.65292041 34.26030969 -121 37 C-117.83267579 37.25086724 -117.83267579 37.25086724 -115 37 C-114.9175 35.7625 -114.835 34.525 -114.75 33.25 C-114.55715209 30.3572814 -114.06732961 29.09503462 -112.3671875 26.6953125 C-109.09537615 24.35213408 -107.29311072 25.04293034 -103.375 25.625 C-98.59260675 25.88344861 -98.59260675 25.88344861 -94.48583984 23.75634766 C-91.57346356 20.35565642 -89.32459917 16.5149434 -87.04345703 12.67480469 C-79.01698133 -0.20812075 -61.89883077 -8.12444923 -47.65625 -11.56640625 C-30.77303371 -14.32234303 -13.94354331 -9.56909835 0 0 Z " fill="#060606" transform="translate(358,170)"/>
<path d="M0 0 C0.66 0 1.32 0 2 0 C2 8.58 2 17.16 2 26 C2.66 26 3.32 26 4 26 C4.33 19.73 4.66 13.46 5 7 C5.33 7 5.66 7 6 7 C6 13.27 6 19.54 6 26 C6.66 26 7.32 26 8 26 C8.33 22.04 8.66 18.08 9 14 C12.96 13.67 16.92 13.34 21 13 C21 13.66 21 14.32 21 15 C17.37 15 13.74 15 10 15 C10 18.63 10 22.26 10 26 C11.65 26 13.3 26 15 26 C15 27.65 15 29.3 15 31 C18.96 31.33 22.92 31.66 27 32 C27 32.33 27 32.66 27 33 C21.06 33.495 21.06 33.495 15 34 C15 34.66 15 35.32 15 36 C15.66 36 16.32 36 17 36 C17 36.66 17 37.32 17 38 C16.34 38 15.68 38 15 38 C15 39.65 15 41.3 15 43 C13.68 43 12.36 43 11 43 C10.67 46.96 10.34 50.92 10 55 C13.63 55 17.26 55 21 55 C21 55.66 21 56.32 21 57 C19.18757948 57.02687279 17.37504767 57.04633715 15.5625 57.0625 C14.55316406 57.07410156 13.54382813 57.08570313 12.50390625 57.09765625 C10 57 10 57 9 56 C8.92741054 53.81360547 8.91626217 51.62499611 8.9375 49.4375 C8.94652344 48.23996094 8.95554687 47.04242188 8.96484375 45.80859375 C8.98224609 44.41833984 8.98224609 44.41833984 9 43 C8.34 43 7.68 43 7 43 C7 48.61 7 54.22 7 60 C10.3 60 13.6 60 17 60 C16.01 60.99 16.01 60.99 15 62 C11.61922339 61.96674646 8.36043621 61.43082516 5 61 C5 55.06 5 49.12 5 43 C4.34 43 3.68 43 3 43 C2.67 48.94 2.34 54.88 2 61 C1.34 60.67 0.68 60.34 0 60 C0.33 54.39 0.66 48.78 1 43 C0.01 43 -0.98 43 -2 43 C-2 50.92 -2 58.84 -2 67 C-4.97 67 -7.94 67 -11 67 C-11 66.67 -11 66.34 -11 66 C-8.36 66 -5.72 66 -3 66 C-3 58.41 -3 50.82 -3 43 C-3.99 43 -4.98 43 -6 43 C-6 49.6 -6 56.2 -6 63 C-6.66 63 -7.32 63 -8 63 C-8 56.4 -8 49.8 -8 43 C-8.66 43 -9.32 43 -10 43 C-10.33 50.26 -10.66 57.52 -11 65 C-13.64 65 -16.28 65 -19 65 C-19 64.67 -19 64.34 -19 64 C-16.69 64 -14.38 64 -12 64 C-12 57.07 -12 50.14 -12 43 C-12.66 43 -13.32 43 -14 43 C-14.33 46.63 -14.66 50.26 -15 54 C-19.455 54.495 -19.455 54.495 -24 55 C-24 54.34 -24 53.68 -24 53 C-21.36 53 -18.72 53 -16 53 C-16 49.7 -16 46.4 -16 43 C-16.99 43 -17.98 43 -19 43 C-19 42.01 -19 41.02 -19 40 C-22.96 39.67 -26.92 39.34 -31 39 C-31 41.97 -31 44.94 -31 48 C-29.02 48 -27.04 48 -25 48 C-24.15619078 60.44618607 -28.4941713 72.50613656 -36.671875 81.92578125 C-48.55422612 93.3765085 -63.71324498 96.38398049 -79.640625 96.30102539 C-95.86790207 95.89207184 -108.96892469 89.68494101 -121 79 C-121.61359375 78.46890625 -122.2271875 77.9378125 -122.859375 77.390625 C-130.60478241 70.21368786 -137.70523115 60.06862928 -141 50 C-141 49.34 -141 48.68 -141 48 C-133.41 48 -125.82 48 -118 48 C-117.46375 50.5575 -116.9275 53.115 -116.375 55.75 C-113.94827207 66.49252172 -110.05695729 78.01436806 -100.7109375 84.6171875 C-90.60541858 90.99801365 -80.70252801 92.19508963 -69 91 C-65.58396761 90.14714441 -62.92634328 88.93598693 -60 87 C-58.906875 86.29875 -57.81375 85.5975 -56.6875 84.875 C-49.56759435 77.25835675 -48.88936045 67.12102224 -48.4375 57.1875 C-48.37272461 55.86202148 -48.37272461 55.86202148 -48.30664062 54.50976562 C-48.20108464 52.34000377 -48.10008929 50.1700209 -48 48 C-43.05 47.67 -38.1 47.34 -33 47 C-32.67 44.03 -32.34 41.06 -32 38 C-27.71 38 -23.42 38 -19 38 C-19 37.34 -19 36.68 -19 36 C-25.6 35.67 -32.2 35.34 -39 35 C-39 31.04 -39 27.08 -39 23 C-38.34 23 -37.68 23 -37 23 C-37.33 26.63 -37.66 30.26 -38 34 C-31.73 34 -25.46 34 -19 34 C-19 33.34 -19 32.68 -19 32 C-23.95 31.67 -28.9 31.34 -34 31 C-34 30.67 -34 30.34 -34 30 C-29.05 29.67 -24.1 29.34 -19 29 C-19 28.01 -19 27.02 -19 26 C-18.34 26 -17.68 26 -17 26 C-17 25.34 -17 24.68 -17 24 C-20.63 24 -24.26 24 -28 24 C-28 23.34 -28 22.68 -28 22 C-25.87527424 21.94613371 -23.75016348 21.90726929 -21.625 21.875 C-19.84996094 21.84019531 -19.84996094 21.84019531 -18.0390625 21.8046875 C-15 22 -15 22 -13 24 C-12.34 22.68 -11.68 21.36 -11 20 C-10.67 21.98 -10.34 23.96 -10 26 C-9.34 26 -8.68 26 -8 26 C-8 23.03 -8 20.06 -8 17 C-9.98 17 -11.96 17 -14 17 C-14 13.7 -14 10.4 -14 7 C-13.67 7 -13.34 7 -13 7 C-13 9.97 -13 12.94 -13 16 C-11.02 16 -9.04 16 -7 16 C-6.67 19.3 -6.34 22.6 -6 26 C-5.34 26 -4.68 26 -4 26 C-4 25.34 -4 24.68 -4 24 C-3.34 24 -2.68 24 -2 24 C-2 24.66 -2 25.32 -2 26 C-1.34 26 -0.68 26 0 26 C0 17.42 0 8.84 0 0 Z " fill="#050404" transform="translate(399,222)"/>
<path d="M0 0 C9.58267401 6.87570395 16.29463824 16.27177519 21 27 C21 27.99 21 28.98 21 30 C8.46 30 -4.08 30 -17 30 C-16.67 31.32 -16.34 32.64 -16 34 C-16 37.96 -16 41.92 -16 46 C-7.75 46 0.5 46 9 46 C9.495 48.475 9.495 48.475 10 51 C9 52 9 52 6.59155273 52.11352539 C5.54942627 52.10828857 4.5072998 52.10305176 3.43359375 52.09765625 C2.30888672 52.09443359 1.18417969 52.09121094 0.02539062 52.08789062 C-1.15861328 52.07951172 -2.34261719 52.07113281 -3.5625 52.0625 C-4.75037109 52.05798828 -5.93824219 52.05347656 -7.16210938 52.04882812 C-10.10812226 52.03699675 -13.05403681 52.02051287 -16 52 C-16 55.3 -16 58.6 -16 62 C-18.31 62 -20.62 62 -23 62 C-23.01458252 61.20118408 -23.02916504 60.40236816 -23.04418945 59.5793457 C-23.41210103 41.45547563 -24.43537177 23.82314117 -28 6 C-34.27 4.68 -40.54 3.36 -47 2 C-34.23731017 -8.21015186 -13.97333208 -8.26047808 0 0 Z " fill="#F4DDB2" transform="translate(345,168)"/>
<path d="M0 0 C3.36295044 0.01845477 6.72562678 0.02050753 10.08862305 0.02026367 C12.25594311 0.02517397 14.42326134 0.03100014 16.59057617 0.0378418 C17.58134659 0.03895462 18.572117 0.04006744 19.59291077 0.04121399 C25.39512578 0.08049964 31.01834695 0.46456673 36.77416992 1.20581055 C34.52178568 4.30283888 32.18743025 6.7160893 29.21166992 9.08081055 C26.32206024 11.45955 24.27594393 13.84491346 22.30151367 16.9909668 C15.44974482 27.81601891 15.44974482 27.81601891 10.06323242 29.0690918 C6.27416992 28.95581055 6.27416992 28.95581055 2.74291992 28.44018555 C-0.17284163 27.90655676 -0.17284163 27.90655676 -2.05786133 29.3972168 C-3.35781065 31.4101818 -3.91479613 33.05403588 -4.41333008 35.39331055 C-4.68145508 36.65143555 -4.94958008 37.90956055 -5.22583008 39.20581055 C-7.97583008 39.89331055 -7.97583008 39.89331055 -11.22583008 40.20581055 C-12.57918903 39.2330838 -13.91245612 38.23188395 -15.22583008 37.20581055 C-18.14023707 36.53859518 -18.14023707 36.53859518 -21.22583008 37.20581055 C-24.52349006 39.59823053 -27.42631032 42.25076191 -30.22583008 45.20581055 C-29.83140316 38.63202863 -27.85719893 33.11420926 -25.56567383 26.96362305 C-23.80450143 22.02412495 -22.4065006 17.03022902 -21.02270508 11.97143555 C-20.22583008 9.20581055 -20.22583008 9.20581055 -19.22583008 7.20581055 C-13.61583008 7.20581055 -8.00583008 7.20581055 -2.22583008 7.20581055 C-2.22583008 5.88581055 -2.22583008 4.56581055 -2.22583008 3.20581055 C-14.76583008 3.20581055 -27.30583008 3.20581055 -40.22583008 3.20581055 C-40.22583008 2.87581055 -40.22583008 2.54581055 -40.22583008 2.20581055 C-26.79218226 0.30090267 -13.55755676 -0.07700316 0 0 Z " fill="#F7F7F6" transform="translate(248.225830078125,167.794189453125)"/>
<path d="M0 0 C20.79 0 41.58 0 63 0 C63 1.32 63 2.64 63 4 C56.4 4 49.8 4 43 4 C43.96421875 6.82046875 44.9284375 9.6409375 45.921875 12.546875 C46.86859751 15.31718319 47.81516527 18.08754421 48.76171875 20.85791016 C49.41325014 22.76454081 50.06493919 24.6711176 50.71679688 26.57763672 C52.55071602 31.94156894 54.38183169 37.3064389 56.20776367 42.6730957 C56.70632879 44.13744828 57.20572129 45.60151968 57.70629883 47.06518555 C58.2914512 48.7768512 58.87249862 50.48991876 59.453125 52.203125 C59.75895508 53.10192383 60.06478516 54.00072266 60.37988281 54.92675781 C61 57 61 57 61 59 C53.74 59 46.48 59 39 59 C38.03578125 56.16792969 37.0715625 53.33585937 36.078125 50.41796875 C35.13177957 47.64094005 34.18504837 44.86404315 33.23828125 42.0871582 C32.58618607 40.17388387 31.9344849 38.2604752 31.28320312 36.34692383 C30.34090924 33.57857424 29.39735452 30.81065869 28.453125 28.04296875 C28.14959106 27.15229706 27.84605713 26.26162537 27.5333252 25.34396362 C25.65261758 19.84546477 23.706962 14.37871288 21.62011719 8.9543457 C21 7 21 7 21 4 C14.07 4 7.14 4 0 4 C0 2.68 0 1.36 0 0 Z " fill="#060606" transform="translate(103,171)"/>
<path d="M0 0 C1.98 0 3.96 0 6 0 C6 2.64 6 5.28 6 8 C13.59 8 21.18 8 29 8 C29 5.36 29 2.72 29 0 C29.33 0 29.66 0 30 0 C30.98909134 26.0185973 30.98909134 26.0185973 23.25 36.0625 C17.83926339 41.61091439 10.76763522 44.10602517 3.14819336 44.24145508 C-7.81366291 44.28266064 -16.04322974 42.78469246 -25 36 C-25 35.67 -25 35.34 -25 35 C-24.13117188 34.89042969 -23.26234375 34.78085937 -22.3671875 34.66796875 C-13.59557423 33.82775859 -13.59557423 33.82775859 -6 30 C-1.42704129 21.38399625 -1.29709458 9.55095364 0 0 Z " fill="#F8F7F7" transform="translate(321,270)"/>
<path d="M0 0 C7.26 0 14.52 0 22 0 C23.155 3.238125 24.31 6.47625 25.5 9.8125 C25.86544922 10.82932861 26.23089844 11.84615723 26.60742188 12.89379883 C26.89166016 13.69841553 27.17589844 14.50303223 27.46875 15.33203125 C27.76201172 16.15421143 28.05527344 16.9763916 28.35742188 17.82348633 C29 20 29 20 29 23 C29.66 23 30.32 23 31 23 C31.11214844 22.18273437 31.22429687 21.36546875 31.33984375 20.5234375 C32.10663479 16.43086045 33.28530966 12.58178576 34.5625 8.625 C34.91344727 7.52091797 34.91344727 7.52091797 35.27148438 6.39453125 C35.8440028 4.59518762 36.42149314 2.79742723 37 1 C38.65 0.67 40.3 0.34 42 0 C41.36516257 6.66786769 39.29252059 12.72474708 37.18359375 19.05859375 C36.61971703 20.77502831 36.61971703 20.77502831 36.04444885 22.52613831 C34.84760469 26.16508842 33.64267447 29.80130133 32.4375 33.4375 C31.62251121 35.91063083 30.80805208 38.38393628 29.99414062 40.85742188 C28.00222573 46.90698433 26.00367282 52.95432238 24 59 C22.35 59 20.7 59 19 59 C16.5191847 51.6038411 14.04158739 44.20661292 11.56812286 36.80799294 C10.41956309 33.37276243 9.26988711 29.93791388 8.11767578 26.50390625 C7.00631713 23.19151928 5.89787029 19.87817122 4.79145813 16.56412888 C4.16195274 14.68112083 3.52941524 12.79912732 2.89685059 10.91714478 C2.32625916 9.20559708 2.32625916 9.20559708 1.74414062 7.45947266 C1.40660767 6.451315 1.06907471 5.44315735 0.72131348 4.40444946 C0 2 0 2 0 0 Z " fill="#030303" transform="translate(156,270)"/>
<path d="M0 0 C0.66 0 1.32 0 2 0 C2 8.58 2 17.16 2 26 C2.66 26 3.32 26 4 26 C4.33 19.73 4.66 13.46 5 7 C5.33 7 5.66 7 6 7 C6 13.27 6 19.54 6 26 C6.66 26 7.32 26 8 26 C8.33 22.04 8.66 18.08 9 14 C14.94 13.505 14.94 13.505 21 13 C21 13.66 21 14.32 21 15 C17.37 15 13.74 15 10 15 C10 18.63 10 22.26 10 26 C11.65 26 13.3 26 15 26 C15 27.65 15 29.3 15 31 C18.96 31.33 22.92 31.66 27 32 C27 32.33 27 32.66 27 33 C21.06 33.495 21.06 33.495 15 34 C15 34.66 15 35.32 15 36 C15.66 36 16.32 36 17 36 C17 36.66 17 37.32 17 38 C16.34 38 15.68 38 15 38 C15 39.65 15 41.3 15 43 C13.68 43 12.36 43 11 43 C10.67 46.96 10.34 50.92 10 55 C13.63 55 17.26 55 21 55 C21 55.66 21 56.32 21 57 C19.18757948 57.02687279 17.37504767 57.04633715 15.5625 57.0625 C14.55316406 57.07410156 13.54382813 57.08570313 12.50390625 57.09765625 C10 57 10 57 9 56 C8.92741054 53.81360547 8.91626217 51.62499611 8.9375 49.4375 C8.94652344 48.23996094 8.95554687 47.04242188 8.96484375 45.80859375 C8.97644531 44.88175781 8.98804688 43.95492187 9 43 C8.34 43 7.68 43 7 43 C7 48.61 7 54.22 7 60 C10.3 60 13.6 60 17 60 C16.34 60.66 15.68 61.32 15 62 C11.61922339 61.96674646 8.36043621 61.43082516 5 61 C5 55.06 5 49.12 5 43 C4.34 43 3.68 43 3 43 C2.67 48.94 2.34 54.88 2 61 C1.01 60.505 1.01 60.505 0 60 C0.33 54.39 0.66 48.78 1 43 C0.01 43 -0.98 43 -2 43 C-2 50.92 -2 58.84 -2 67 C-4.97 67 -7.94 67 -11 67 C-11 66.67 -11 66.34 -11 66 C-8.36 66 -5.72 66 -3 66 C-3 58.41 -3 50.82 -3 43 C-3.99 43 -4.98 43 -6 43 C-6 49.6 -6 56.2 -6 63 C-6.66 63 -7.32 63 -8 63 C-8 56.4 -8 49.8 -8 43 C-8.66 43 -9.32 43 -10 43 C-10.33 50.26 -10.66 57.52 -11 65 C-13.64 65 -16.28 65 -19 65 C-19 64.67 -19 64.34 -19 64 C-16.69 64 -14.38 64 -12 64 C-12 57.07 -12 50.14 -12 43 C-12.66 43 -13.32 43 -14 43 C-14.33 46.63 -14.66 50.26 -15 54 C-19.455 54.495 -19.455 54.495 -24 55 C-24 54.34 -24 53.68 -24 53 C-21.36 53 -18.72 53 -16 53 C-16 49.7 -16 46.4 -16 43 C-16.99 43 -17.98 43 -19 43 C-19 42.01 -19 41.02 -19 40 C-22.96 39.67 -26.92 39.34 -31 39 C-31 41.64 -31 44.28 -31 47 C-31.33 47 -31.66 47 -32 47 C-32 44.03 -32 41.06 -32 38 C-27.71 38 -23.42 38 -19 38 C-19 37.34 -19 36.68 -19 36 C-25.6 35.67 -32.2 35.34 -39 35 C-39 31.04 -39 27.08 -39 23 C-38.34 23 -37.68 23 -37 23 C-37.33 26.63 -37.66 30.26 -38 34 C-31.73 34 -25.46 34 -19 34 C-19 33.34 -19 32.68 -19 32 C-23.95 31.67 -28.9 31.34 -34 31 C-34 30.67 -34 30.34 -34 30 C-29.05 29.67 -24.1 29.34 -19 29 C-19 28.01 -19 27.02 -19 26 C-18.34 26 -17.68 26 -17 26 C-17 25.34 -17 24.68 -17 24 C-20.63 24 -24.26 24 -28 24 C-28 23.34 -28 22.68 -28 22 C-25.87527424 21.94613371 -23.75016348 21.90726929 -21.625 21.875 C-20.44164062 21.85179687 -19.25828125 21.82859375 -18.0390625 21.8046875 C-15 22 -15 22 -13 24 C-12.34 22.68 -11.68 21.36 -11 20 C-10.67 21.98 -10.34 23.96 -10 26 C-9.34 26 -8.68 26 -8 26 C-8 23.03 -8 20.06 -8 17 C-9.98 17 -11.96 17 -14 17 C-14 13.7 -14 10.4 -14 7 C-13.67 7 -13.34 7 -13 7 C-13 9.97 -13 12.94 -13 16 C-11.02 16 -9.04 16 -7 16 C-6.505 20.95 -6.505 20.95 -6 26 C-5.34 26 -4.68 26 -4 26 C-4 25.34 -4 24.68 -4 24 C-3.34 24 -2.68 24 -2 24 C-2 24.66 -2 25.32 -2 26 C-1.34 26 -0.68 26 0 26 C0 17.42 0 8.84 0 0 Z " fill="#434241" transform="translate(399,222)"/>
<path d="M0 0 C13.86 0 27.72 0 42 0 C42 1.32 42 2.64 42 4 C36.39 4 30.78 4 25 4 C24.46375 6.289375 23.9275 8.57875 23.375 10.9375 C21.68271325 17.94327412 19.48128588 24.67504867 16.93115234 31.41381836 C15.64520367 34.86768628 15 37.25944346 15 41 C15.763125 40.05125 16.52625 39.1025 17.3125 38.125 C19.15534046 35.83390105 20.46837417 34.68775056 23 33 C27.6975795 32.5002575 29.34707959 33.26030969 33 36 C36.16732421 36.25086724 36.16732421 36.25086724 39 36 C39.0825 34.7625 39.165 33.525 39.25 32.25 C39.62764699 29.51932175 40.02574494 27.95319101 41.375 25.5 C45.61802146 23.07541631 50.22673568 23.37328133 55 24 C55.99 24.66 56.98 25.32 58 26 C56.02 30.455 56.02 30.455 54 35 C53.505 33.02 53.505 33.02 53 31 C50.03 31.495 50.03 31.495 47 32 C46.67 34.97 46.34 37.94 46 41 C44.25531628 41.70088156 42.50398839 42.38524009 40.75 43.0625 C39.77546875 43.44535156 38.8009375 43.82820313 37.796875 44.22265625 C34.92378054 45.0211839 33.71751866 45.10624653 31 44 C30.34 43.484375 29.68 42.96875 29 42.4375 C26.86915768 40.6109093 26.86915768 40.6109093 23 41 C23.4116765 43.96407083 23.69219041 45.64658899 25.6875 47.9375 C26.120625 48.618125 26.55375 49.29875 27 50 C26.1932182 53.59384618 25.04691418 55.92962873 23 59 C19.9609375 59.29296875 19.9609375 59.29296875 16.375 59.1875 C15.18648437 59.16042969 13.99796875 59.13335937 12.7734375 59.10546875 C11.85820312 59.07066406 10.94296875 59.03585938 10 59 C12 57 12 57 14.625 56.875 C15.40875 56.91625 16.1925 56.9575 17 57 C17.85637238 54.07406105 18.38673104 51.91825712 17.17578125 49.04296875 C16.17852152 47.32488268 15.09427085 45.65798613 14 44 C13.18618205 45.93694678 12.37399084 47.87457711 11.5625 49.8125 C11.11003906 50.89144531 10.65757812 51.97039062 10.19140625 53.08203125 C9.39624987 55.0295126 8.66520352 57.00438943 8 59 C6.35 59 4.7 59 3 59 C4.39896086 52.17930219 6.2890807 45.66502448 8.4765625 39.05859375 C8.80667328 38.05031021 9.13678406 37.04202667 9.47689819 36.00318909 C10.52227218 32.8132991 11.5735347 29.62538667 12.625 26.4375 C13.33893311 24.26249824 14.05247867 22.08736923 14.765625 19.91210938 C16.50593889 14.60659099 18.25153307 9.30283681 20 4 C13.4 4 6.8 4 0 4 C0 2.68 0 1.36 0 0 Z " fill="#AD99C8" transform="translate(204,171)"/>
<path d="M0 0 C4.81899576 2.36403566 7.56479358 5.22324894 10 10 C10.68785102 15.40454371 9.74670276 19.30402432 7 24 C2.86882867 27.20376552 0.56752563 28.08096814 -4.58203125 27.9375 C-12.04096433 28.58669711 -15.95820239 34.3143887 -20.625 39.625 C-29.5239376 49.74182262 -29.5239376 49.74182262 -33.42871094 50.42480469 C-35.6484375 50.1484375 -35.6484375 50.1484375 -39 49 C-34.32533663 43.37696243 -29.32234333 38.20258446 -24.125 33.0625 C-23.34125 32.28326172 -22.5575 31.50402344 -21.75 30.70117188 C-19.83561419 28.79845915 -17.91891966 26.89813829 -16 25 C-16.32226562 23.92878906 -16.64453125 22.85757813 -16.9765625 21.75390625 C-18.49471493 16.18541586 -19.07713837 12.07448872 -16.3125 6.75 C-11.33238885 0.82770566 -7.74925126 -1.34174315 0 0 Z " fill="#F4DDB2" transform="translate(418,181)"/>
<path d="M0 0 C13.02750306 2.71626076 21.41541242 11.0611085 28.72265625 21.73828125 C30 24 30 24 31 28 C19.12 28 7.24 28 -5 28 C-5.99 22.72 -6.98 17.44 -8 12 C-11.86655106 5.86093024 -11.86655106 5.86093024 -17.75 3.625 C-18.73484375 3.30789062 -19.7196875 2.99078125 -20.734375 2.6640625 C-21.48203125 2.44492188 -22.2296875 2.22578125 -23 2 C-16.78933053 -2.14044632 -7.22479652 -0.66686064 0 0 Z " fill="#F8F8F8" transform="translate(332,163)"/>
<path d="M0 0 C1.62490954 -0.02698189 3.24994633 -0.04638757 4.875 -0.0625 C5.77992188 -0.07410156 6.68484375 -0.08570313 7.6171875 -0.09765625 C10 0 10 0 12 1 C12 1.99 12 2.98 12 4 C12.99 4 13.98 4 15 4 C15 7.3 15 10.6 15 14 C12.36 14 9.72 14 7 14 C7.98267859 15.20561184 7.98267859 15.20561184 9.84765625 15.09765625 C11.8984375 15.06510417 13.94921875 15.03255208 16 15 C15.98839844 14.37351562 15.97679687 13.74703125 15.96484375 13.1015625 C15.95582031 12.28429687 15.94679688 11.46703125 15.9375 10.625 C15.92589844 9.81289063 15.91429687 9.00078125 15.90234375 8.1640625 C16 6 16 6 17 4 C17.66 4 18.32 4 19 4 C18.99476318 4.63091553 18.98952637 5.26183105 18.98413086 5.91186523 C18.96342174 8.75373347 18.95035934 11.59558588 18.9375 14.4375 C18.92912109 15.43072266 18.92074219 16.42394531 18.91210938 17.44726562 C18.90888672 18.39150391 18.90566406 19.33574219 18.90234375 20.30859375 C18.89710693 21.18314209 18.89187012 22.05769043 18.88647461 22.95874023 C18.77215191 24.99440206 18.77215191 24.99440206 20 26 C19.99214478 25.10692139 19.99214478 25.10692139 19.98413086 24.19580078 C19.96338001 21.50554453 19.95034593 18.81530511 19.9375 16.125 C19.92912109 15.18785156 19.92074219 14.25070312 19.91210938 13.28515625 C19.90727539 11.94130859 19.90727539 11.94130859 19.90234375 10.5703125 C19.89448853 9.32918701 19.89448853 9.32918701 19.88647461 8.06298828 C20 6 20 6 21 4 C21.66 4 22.32 4 23 4 C24.57924842 7.15849685 24.14316514 10.5365128 24.125 14 C24.13080078 15.10601562 24.13080078 15.10601562 24.13671875 16.234375 C24.1266598 21.7466804 24.1266598 21.7466804 23 24 C23.66 24 24.32 24 25 24 C25 17.4 25 10.8 25 4 C25.99 4 26.98 4 28 4 C27.99476318 4.69150146 27.98952637 5.38300293 27.98413086 6.09545898 C27.963425 9.20946352 27.95036037 12.32345361 27.9375 15.4375 C27.92912109 16.52611328 27.92074219 17.61472656 27.91210938 18.73632812 C27.90888672 19.77080078 27.90566406 20.80527344 27.90234375 21.87109375 C27.89710693 22.82943115 27.89187012 23.78776855 27.88647461 24.77514648 C27.7494687 26.97285339 27.7494687 26.97285339 29 28 C29 20.08 29 12.16 29 4 C29.99 4 30.98 4 32 4 C31.98839844 5.21558594 31.97679687 6.43117188 31.96484375 7.68359375 C31.95546722 9.26822764 31.94636687 10.85286318 31.9375 12.4375 C31.92912109 13.23994141 31.92074219 14.04238281 31.91210938 14.86914062 C31.9034857 16.91295221 31.9477185 18.95683902 32 21 C32.33 21.33 32.66 21.66 33 22 C33 19.03 33 16.06 33 13 C35.55573817 15.55573817 35.35498461 16.69698427 35.4375 20.25 C35.36819252 24.02725745 35.18244321 26.5590814 32.8125 29.5625 C28.95935501 32.90189232 26.61652164 33.85304349 21.5625 34.3125 C16.91527102 33.90484834 13.77008562 32.46489844 10.1875 29.5 C9 28 9 28 8 25 C6.68 24.67 5.36 24.34 4 24 C4.66 19.05 5.32 14.1 6 9 C4.02 9 2.04 9 0 9 C0 6.03 0 3.06 0 0 Z " fill="#F0D9AF" transform="translate(368,261)"/>
<path d="M0 0 C1.69946788 2.54920182 2.56531331 4.32099564 3.5078125 7.16015625 C3.77207031 7.95357422 4.03632813 8.74699219 4.30859375 9.56445312 C4.57800781 10.38880859 4.84742188 11.21316406 5.125 12.0625 C5.54072266 13.30483398 5.54072266 13.30483398 5.96484375 14.57226562 C8 20.73287408 8 20.73287408 8 23 C6.13671875 24.47265625 6.13671875 24.47265625 3.6875 26.0625 C2.88699219 26.58972656 2.08648437 27.11695313 1.26171875 27.66015625 C-2.88309698 30.11554795 -6.24314265 30.4031235 -11 30 C-16.08643801 27.26114877 -19.17004027 24.4898792 -21 19 C-21.50171564 12.87906919 -21.08833623 9.8832905 -17 5 C-13.79772325 2.04243872 -11.69561343 1.63354142 -7.375 1.75 C-6.41335937 1.76546875 -5.45171875 1.7809375 -4.4609375 1.796875 C-2 2 -2 2 0 3 C0 2.01 0 1.02 0 0 Z " fill="#F1DAB1" transform="translate(125,180)"/>
<path d="M0 0 C0.93134766 0.02707031 1.86269531 0.05414063 2.82226562 0.08203125 C5.11306872 0.1525175 7.39907563 0.25095754 9.6875 0.375 C9.831875 1.15875 9.97625 1.9425 10.125 2.75 C10.56548925 5.33921018 10.56548925 5.33921018 11.6875 7.375 C12.22748915 12.29686834 12.19017128 16.26912318 10.125 20.8125 C6.67582498 24.43855579 3.50138625 26.25916249 -1.58984375 26.46875 C-6.60304373 26.13509276 -9.76225874 25.1404074 -13.3125 21.375 C-15.23873899 18.2260774 -15.66253524 15.67351974 -15.75 12 C-15.78996094 11.08476562 -15.82992187 10.16953125 -15.87109375 9.2265625 C-15.25558009 6.08442984 -14.22658319 3.92217014 -12.05737305 1.53955078 C-8.43985709 -0.87482604 -4.17953752 -0.23039147 0 0 Z " fill="#F5DDB3" transform="translate(95.3125,269.625)"/>
<path d="M0 0 C1.98 0 3.96 0 6 0 C6 2.64 6 5.28 6 8 C13.59 8 21.18 8 29 8 C29 5.36 29 2.72 29 0 C29.33 0 29.66 0 30 0 C30 6.27 30 12.54 30 19 C29.505 17.02 29.505 17.02 29 15 C21.08 15 13.16 15 5 15 C4.67 18.3 4.34 21.6 4 25 C2.97066795 29.28334952 1.74425111 33.49913277 -1.6796875 36.4453125 C-3.5 37.5 -3.5 37.5 -7 39 C-7.804375 39.4125 -8.60875 39.825 -9.4375 40.25 C-9.953125 40.4975 -10.46875 40.745 -11 41 C-11 41.66 -11 42.32 -11 43 C-16.23518706 41.56032356 -20.63026009 39.18303389 -25 36 C-25 35.67 -25 35.34 -25 35 C-24.13117188 34.89042969 -23.26234375 34.78085937 -22.3671875 34.66796875 C-13.59557423 33.82775859 -13.59557423 33.82775859 -6 30 C-1.42704129 21.38399625 -1.29709458 9.55095364 0 0 Z " fill="#F0DAB1" transform="translate(321,270)"/>
<path d="M0 0 C13.86 0 27.72 0 42 0 C42 1.32 42 2.64 42 4 C36.39 4 30.78 4 25 4 C24.505 6.165625 24.01 8.33125 23.5 10.5625 C21.27643214 19.79266377 18.07903657 28.65366549 14.90234375 37.58984375 C12.74315394 43.67387147 10.83784384 49.81155409 9 56 C8.67 56.99 8.34 57.98 8 59 C6.35 59 4.7 59 3 59 C4.39896086 52.17930219 6.2890807 45.66502448 8.4765625 39.05859375 C8.80667328 38.05031021 9.13678406 37.04202667 9.47689819 36.00318909 C10.52227218 32.8132991 11.5735347 29.62538667 12.625 26.4375 C13.33893311 24.26249824 14.05247867 22.08736923 14.765625 19.91210938 C16.50593889 14.60659099 18.25153307 9.30283681 20 4 C13.4 4 6.8 4 0 4 C0 2.68 0 1.36 0 0 Z " fill="#131313" transform="translate(204,171)"/>
<path d="M0 0 C8.25 0 16.5 0 25 0 C25 4.29 25 8.58 25 13 C18.07 13 11.14 13 4 13 C0 3.375 0 3.375 0 0 Z " fill="#F8F8F7" transform="translate(154,199)"/>
<path d="M0 0 C0.66 0.33 1.32 0.66 2 1 C1.28972656 1.39703125 0.57945312 1.7940625 -0.15234375 2.203125 C-4.90537396 5.69623556 -7.53604864 8.38586586 -8.57177734 14.22167969 C-9.27803159 22.46678743 -9.22931446 30.73296278 -9 39 C-9.66 39 -10.32 39 -11 39 C-11 38.34 -11 37.68 -11 37 C-11.66 37 -12.32 37 -13 37 C-13 37.66 -13 38.32 -13 39 C-13.66 39 -14.32 39 -15 39 C-16.60725635 35.78548731 -16.05748185 32.56387464 -16 29 C-17.98 29 -19.96 29 -22 29 C-22.40124201 24.78923864 -22.48977788 22.68250358 -19.98046875 19.18579102 C-19.05878906 18.30076904 -18.13710938 17.41574707 -17.1875 16.50390625 C-16.45503052 15.78629372 -16.45503052 15.78629372 -15.70776367 15.05418396 C-14.15423743 13.53964169 -12.5781404 12.05133441 -11 10.5625 C-9.93851333 9.53614796 -8.87859813 8.50816799 -7.8203125 7.47851562 C-5.2314653 4.96657588 -2.62179499 2.47758359 0 0 Z " fill="#EFEEED" transform="translate(408,209)"/>
<path d="M0 0 C3.375 1.0625 3.375 1.0625 5.375 2.6875 C6.84481805 6.17831787 6.35913921 8.45398956 5.375 12.0625 C3.28873957 14.37228833 1.96682319 14.94110037 -1.0625 15.5625 C-4.84365767 14.82471314 -6.29806119 13.05427847 -8.625 10.0625 C-9.25 7.5625 -9.25 7.5625 -8.625 5.0625 C-5.90579572 1.27209404 -4.73689899 0.08167067 0 0 Z " fill="#F9F8F5" transform="translate(211.625,68.9375)"/>
<path d="M0 0 C3.05623277 2.09110663 3.86463014 3.29306849 4.5625 6.9375 C3.7998726 11.08958249 2.40406682 12.55795207 -1 15 C-4.20731148 15 -6.1005035 14.50971468 -8.875 12.9375 C-10.71751909 9.76427268 -10.66053097 6.56241421 -10 3 C-7.21052771 -0.43319666 -4.246332 -0.61925675 0 0 Z " fill="#F9F8F6" transform="translate(300,393)"/>
<path d="M0 0 C7.59 0 15.18 0 23 0 C23 0.33 23 0.66 23 1 C15.74 1 8.48 1 1 1 C2.32 4.3 3.64 7.6 5 11 C0.53932384 13.97378411 -3.77146123 13.61143332 -9 13 C-11.625 11.5 -11.625 11.5 -13 9 C-13.58867384 6.29416586 -13.81460309 3.78095361 -14 1 C-11.69 1 -9.38 1 -7 1 C-7 2.65 -7 4.3 -7 6 C-4.69 6 -2.38 6 0 6 C0 4.02 0 2.04 0 0 Z " fill="#A695BE" transform="translate(257,269)"/>
<path d="M0 0 C2.375 1.625 2.375 1.625 4 4 C4.48288863 7.31123632 4.29618989 9.296549 3 12.375 C0.2897489 14.57707902 -1.70878117 14.51582761 -5.125 14.30859375 C-7 14 -7 14 -9 13 C-10.63041883 9.73916234 -10.65964122 6.55761554 -10 3 C-7.21052771 -0.43319666 -4.246332 -0.61925675 0 0 Z " fill="#F9F9F7" transform="translate(417,188)"/>
<path d="M0 0 C2.5 1.5625 2.5 1.5625 4 4 C3.93913078 7.46954545 3.6274029 9.91947278 1.875 12.9375 C-1.22289358 14.69297303 -3.52844534 14.48723574 -7 14 C-9.5 11.875 -9.5 11.875 -11 9 C-10.936318 5.81590023 -10.51040601 3.85067668 -8.875 1.125 C-5.83167192 -0.70099685 -3.45750445 -0.42460581 0 0 Z " fill="#F9F8F7" transform="translate(300,94)"/>
<path d="M0 0 C2.5 1.5625 2.5 1.5625 4 4 C4 7.77684879 3.78395245 10.03513544 1.375 13 C-2.11581787 14.46981805 -4.39148956 13.98413921 -8 13 C-10.34572071 10.88128452 -10.89543972 9.5974873 -11.4375 6.5 C-11 4 -11 4 -9.4375 1.6875 C-6.07228821 -0.64226201 -4.01027077 -0.57289582 0 0 Z " fill="#F9F9F7" transform="translate(97,275)"/>
<path d="M0 0 C1.62490954 -0.02698189 3.24994633 -0.04638757 4.875 -0.0625 C5.77992188 -0.07410156 6.68484375 -0.08570313 7.6171875 -0.09765625 C10 0 10 0 12 1 C12 1.99 12 2.98 12 4 C12.99 4 13.98 4 15 4 C15 7.3 15 10.6 15 14 C12.03 14 9.06 14 6 14 C6 12.35 6 10.7 6 9 C4.02 9 2.04 9 0 9 C0 6.03 0 3.06 0 0 Z " fill="#F3F3F3" transform="translate(368,261)"/>
<path d="M0 0 C6.78350515 5.48453608 6.78350515 5.48453608 7.375 9.625 C6.91952491 13.72427581 5.41725023 15.93527468 3.09375 19.265625 C1.82219351 20.9402086 1.82219351 20.9402086 2 23 C3.093125 22.95875 4.18625 22.9175 5.3125 22.875 C9 23 9 23 12 25 C7.38 25 2.76 25 -2 25 C-2.05437005 22.14557247 -2.09384974 19.29219924 -2.125 16.4375 C-2.14175781 15.63763672 -2.15851563 14.83777344 -2.17578125 14.01367188 C-2.21723982 8.93499665 -1.64056075 4.81188094 0 0 Z " fill="#A795C1" transform="translate(281,205)"/>
<path d="M0 0 C2 3 2 3 3 8 C-4.92 8 -12.84 8 -21 8 C-21.33 6.35 -21.66 4.7 -22 3 C-18.71816938 -0.28183062 -14.47404498 0.40188132 -10 0.1875 C-8.6078125 0.09178711 -8.6078125 0.09178711 -7.1875 -0.00585938 C-6.300625 -0.05162109 -5.41375 -0.09738281 -4.5 -0.14453125 C-3.6853125 -0.18940674 -2.870625 -0.23428223 -2.03125 -0.28051758 C-1.3609375 -0.18794678 -0.690625 -0.09537598 0 0 Z " fill="#F1DBB1" transform="translate(158,278)"/>
<path d="M0 0 C2.6923481 2.18753283 2.93936827 3.58423955 3.4375 7 C3 10 3 10 1.375 12.375 C-1.71186432 14.48706506 -3.3282913 14.61195145 -7 14 C-9.375 12.4375 -9.375 12.4375 -11 10 C-11.42213381 6.56262469 -11.60856522 4.17909511 -10 1.0625 C-6.75895557 -0.65930485 -3.57577233 -0.66300779 0 0 Z " fill="#F9F9F7" transform="translate(122,189)"/>
<path d="M0 0 C0.66 0 1.32 0 2 0 C3.57924842 3.15849685 3.14316514 6.5365128 3.125 10 C3.12886719 10.73734375 3.13273437 11.4746875 3.13671875 12.234375 C3.1266598 17.7466804 3.1266598 17.7466804 2 20 C2.66 20 3.32 20 4 20 C4 13.4 4 6.8 4 0 C4.99 0 5.98 0 7 0 C7 7.59 7 15.18 7 23 C3.7 23 0.4 23 -3 23 C-2.34 22.67 -1.68 22.34 -1 22 C-1.00523682 21.40461426 -1.01047363 20.80922852 -1.01586914 20.19580078 C-1.03661999 17.50554453 -1.04965407 14.81530511 -1.0625 12.125 C-1.07506836 10.71927734 -1.07506836 10.71927734 -1.08789062 9.28515625 C-1.09111328 8.38925781 -1.09433594 7.49335938 -1.09765625 6.5703125 C-1.10289307 5.74289551 -1.10812988 4.91547852 -1.11352539 4.06298828 C-1 2 -1 2 0 0 Z " fill="#F7F5F2" transform="translate(389,265)"/>
<path d="M0 0 C0.33 0.66 0.66 1.32 1 2 C3.64 1.67 6.28 1.34 9 1 C11.32749345 4.49124017 11.50299316 5.89222251 11 10 C9.4375 12.375 9.4375 12.375 7 14 C3.5 14.5625 3.5 14.5625 0 14 C-2.5 11.875 -2.5 11.875 -4 9 C-3.93170718 5.58535902 -3.6351705 3.7622046 -1.4375 1.125 C-0.963125 0.75375 -0.48875 0.3825 0 0 Z " fill="#F9F8F6" transform="translate(207,369)"/>
<path d="M0 0 C7.06163974 -0.47875524 7.06163974 -0.47875524 11.0625 1.5625 C13 4 13 4 13.0625 7.625 C12 11 12 11 10.4375 12.4375 C6.90004954 13.25383472 3.62833901 13.12094463 0 13 C0 8.71 0 4.42 0 0 Z " fill="#2E2E2E" transform="translate(324,242)"/>
<path d="M0 0 C3.4375 1 3.4375 1 5.4375 2.75 C6.73392163 5.66694866 6.50798784 7.01792673 5.4375 10 C4.3125 11.8125 4.3125 11.8125 2.4375 13 C-1.0625 13.4375 -1.0625 13.4375 -4.5625 13 C-6.94710953 10.92308202 -7.4584746 9.59443084 -8 6.5 C-7.5625 4 -7.5625 4 -6 1.625 C-3.5625 0 -3.5625 0 0 0 Z " fill="#1C1C1C" transform="translate(282.5625,242)"/>
<path d="M0 0 C0.99 0 1.98 0 3 0 C3.99 1.98 4.98 3.96 6 6 C6.99 4.02 7.98 2.04 9 0 C9.99 0.33 10.98 0.66 12 1 C13.1875 3.5625 13.1875 3.5625 14 6 C14.99 4.02 15.98 2.04 17 0 C17.99 0 18.98 0 20 0 C19.71517632 1.41805831 19.42181856 2.83440379 19.125 4.25 C18.96257812 5.03890625 18.80015625 5.8278125 18.6328125 6.640625 C18.00849925 8.96831144 17.15161458 10.89031952 16 13 C14.68 12.67 13.36 12.34 12 12 C11.67 10.02 11.34 8.04 11 6 C10.34 6 9.68 6 9 6 C8.34 8.31 7.68 10.62 7 13 C6.01 13 5.02 13 4 13 C3.32694982 11.39850114 2.66177773 9.79368971 2 8.1875 C1.62875 7.29417969 1.2575 6.40085938 0.875 5.48046875 C0 3 0 3 0 0 Z " fill="#2B2B2B" transform="translate(296,242)"/>
<path d="M0 0 C1.98 0 3.96 0 6 0 C6.12117187 0.74765625 6.24234375 1.4953125 6.3671875 2.265625 C6.53476563 3.25046875 6.70234375 4.2353125 6.875 5.25 C7.11863281 6.71179688 7.11863281 6.71179688 7.3671875 8.203125 C7.8569285 10.97043312 7.8569285 10.97043312 9.15625 13.09375 C10 15 10 15 9.5390625 17.140625 C9.23742187 17.83671875 8.93578125 18.5328125 8.625 19.25 C8.32851562 19.95640625 8.03203125 20.6628125 7.7265625 21.390625 C7.36691406 22.18726563 7.36691406 22.18726563 7 23 C6.34 23 5.68 23 5 23 C3.96164606 20.29727003 2.94426875 17.58948072 1.9375 14.875 C1.64294922 14.11445313 1.34839844 13.35390625 1.04492188 12.5703125 C-0.63805166 7.97678474 -1.36370594 4.87817096 0 0 Z " fill="#EED9B2" transform="translate(180,270)"/>
<path d="M0 0 C1.828125 0.12109375 1.828125 0.12109375 4 1 C5.484375 3.72265625 5.484375 3.72265625 6.75 7.0625 C7.17796875 8.16722656 7.6059375 9.27195313 8.046875 10.41015625 C8.36140625 11.26480469 8.6759375 12.11945313 9 13 C7.68 12.67 6.36 12.34 5 12 C5 11.34 5 10.68 5 10 C2.02934491 10.34227572 2.02934491 10.34227572 -1 11 C-1.33 11.66 -1.66 12.32 -2 13 C-2.99 13 -3.98 13 -5 13 C-3.58192622 8.52761347 -1.88695626 4.28853694 0 0 Z " fill="#101010" transform="translate(211,242)"/>
<path d="M0 0 C1.859375 0.2265625 1.859375 0.2265625 4 1 C5.265625 2.9609375 5.265625 2.9609375 6.25 5.375 C6.58515625 6.16648438 6.9203125 6.95796875 7.265625 7.7734375 C8 10 8 10 8 13 C7.01 13 6.02 13 5 13 C5 12.01 5 11.02 5 10 C2.02934491 10.34227572 2.02934491 10.34227572 -1 11 C-1.33 11.66 -1.66 12.32 -2 13 C-2.99 13 -3.98 13 -5 13 C-4.54554036 11.58208592 -4.08625056 10.16571954 -3.625 8.75 C-3.24214844 7.56664062 -3.24214844 7.56664062 -2.8515625 6.359375 C-2.04826333 4.13372042 -1.10288338 2.09068328 0 0 Z " fill="#121212" transform="translate(349,242)"/>
<path d="M0 0 C1.0725 0.2475 2.145 0.495 3.25 0.75 C3.25 1.74 3.25 2.73 3.25 3.75 C0.94 3.75 -1.37 3.75 -3.75 3.75 C-3.75 5.4 -3.75 7.05 -3.75 8.75 C-1.275 9.74 -1.275 9.74 1.25 10.75 C1.25 9.1 1.25 7.45 1.25 5.75 C2.24 5.75 3.23 5.75 4.25 5.75 C4.25 7.73 4.25 9.71 4.25 11.75 C1.1667365 13.29163175 -1.35878099 13.04747535 -4.75 12.75 C-7.13460953 10.67308202 -7.6459746 9.34443084 -8.1875 6.25 C-7.75 3.75 -7.75 3.75 -6.1875 1.375 C-3.75 -0.25 -3.75 -0.25 0 0 Z " fill="#191919" transform="translate(262.75,242.25)"/>
<path d="M0 0 C0.66 0 1.32 0 2 0 C2 1.32 2 2.64 2 4 C4.31 4 6.62 4 9 4 C9 2.68 9 1.36 9 0 C9.66 0 10.32 0 11 0 C11 3.96 11 7.92 11 12 C10.01 12 9.02 12 8 12 C8 10.35 8 8.7 8 7 C6.35 7 4.7 7 3 7 C3 8.65 3 10.3 3 12 C2.01 12 1.02 12 0 12 C0 8.04 0 4.08 0 0 Z " fill="#1D1D1D" transform="translate(187,243)"/>
<path d="M0 0 C2.33944736 0.28730055 4.6739143 0.61936779 7 1 C7 1.66 7 2.32 7 3 C5.02 3 3.04 3 1 3 C1.84566739 5.27173092 1.84566739 5.27173092 4.5 5.875 C7 7 7 7 7.9375 9 C7.958125 9.66 7.97875 10.32 8 11 C6 13 6 13 4.0546875 13.1953125 C2.03645833 13.13020833 0.01822917 13.06510417 -2 13 C-2 12.01 -2 11.02 -2 10 C-0.02 10 1.96 10 4 10 C3.071875 9.566875 3.071875 9.566875 2.125 9.125 C0 8 0 8 -2 6 C-1.44444444 1.44444444 -1.44444444 1.44444444 0 0 Z " fill="#1F1F1F" transform="translate(171,242)"/>
<path d="M0 0 C0.66 0 1.32 0 2 0 C2 6.93 2 13.86 2 21 C-2 20 -2 20 -3 19 C-2.79451882 17.39039739 -2.57952932 15.78151449 -2.3203125 14.1796875 C-1.83039662 10.8458697 -1.56909432 7.49318913 -1.28125 4.13671875 C-1 2 -1 2 0 0 Z " fill="#F9F8F5" transform="translate(385,265)"/>
<path d="M0 0 C0.99 0 1.98 0 3 0 C4.32 2.64 5.64 5.28 7 8 C8.32 5.36 9.64 2.72 11 0 C11.66 0 12.32 0 13 0 C12.39254603 4.85963179 10.27241033 8.7405518 8 13 C7.01 13 6.02 13 5 13 C4.16209211 11.21046815 3.32980604 9.41830305 2.5 7.625 C1.80390625 6.12839844 1.80390625 6.12839844 1.09375 4.6015625 C0 2 0 2 0 0 Z " fill="#161616" transform="translate(136,242)"/>
<path d="M0 0 C2.5 -0.3125 2.5 -0.3125 5 0 C5.66 0.66 6.32 1.32 7 2 C6.625 5.125 6.625 5.125 6 8 C4.02 8 2.04 8 0 8 C-1.125 5.6875 -1.125 5.6875 -2 3 C-1.34 2.01 -0.68 1.02 0 0 Z " fill="#B1B1B1" transform="translate(329,363)"/>
<path d="M0 0 C1.2065625 0.0309375 1.2065625 0.0309375 2.4375 0.0625 C3.5625 2.375 3.5625 2.375 4.4375 5.0625 C3.4475 6.5475 3.4475 6.5475 2.4375 8.0625 C-0.0625 8.375 -0.0625 8.375 -2.5625 8.0625 C-3.2225 7.4025 -3.8825 6.7425 -4.5625 6.0625 C-3.83457637 0.09352625 -3.83457637 0.09352625 0 0 Z " fill="#B0B0B0" transform="translate(174.5625,362.9375)"/>
<path d="M0 0 C2.5625 0.1875 2.5625 0.1875 4.5625 2.1875 C4.1875 4.8125 4.1875 4.8125 3.5625 7.1875 C1.1875 7.8125 1.1875 7.8125 -1.4375 8.1875 C-3.4375 6.1875 -3.4375 6.1875 -3.625 3.625 C-3.37291261 0.34786389 -3.27713611 0.25208739 0 0 Z " fill="#E0E0E0" transform="translate(281.4375,244.8125)"/>
<path d="M0 0 C0.99 0 1.98 0 3 0 C3.99 1.98 4.98 3.96 6 6 C6.99 5.67 7.98 5.34 9 5 C8.125 10.75 8.125 10.75 7 13 C6.01 13 5.02 13 4 13 C3.32694982 11.39850114 2.66177773 9.79368971 2 8.1875 C1.62875 7.29417969 1.2575 6.40085938 0.875 5.48046875 C0 3 0 3 0 0 Z " fill="#1B1B1B" transform="translate(296,242)"/>
<path d="M0 0 C0 1.98 0 3.96 0 6 C-3.96 6 -7.92 6 -12 6 C-6 -0.15789474 -6 -0.15789474 0 0 Z " fill="#AC99C7" transform="translate(252,224)"/>
<path d="M0 0 C2.375 -0.125 2.375 -0.125 5 0 C5.66 0.66 6.32 1.32 7 2 C6.44444444 6.55555556 6.44444444 6.55555556 5 8 C3.33382885 8.04063832 1.66611905 8.042721 0 8 C0 5.36 0 2.72 0 0 Z " fill="#E2E2E2" transform="translate(327,245)"/>
<path d="M0 0 C1.65 0 3.3 0 5 0 C6.125 1.75 6.125 1.75 7 4 C6.125 6.25 6.125 6.25 5 8 C3.68 7.34 2.36 6.68 1 6 C0.67 6.66 0.34 7.32 0 8 C0 5.36 0 2.72 0 0 Z " fill="#919191" transform="translate(312,363)"/>
<path d="M0 0 C0.66 0 1.32 0 2 0 C3.59412284 3.18824568 3.10174735 6.62896662 3.0625 10.125 C3.05798828 10.87910156 3.05347656 11.63320313 3.04882812 12.41015625 C3.03703499 14.27347127 3.01909942 16.13674555 3 18 C2.67 18 2.34 18 2 18 C2 15.03 2 12.06 2 9 C1.01 9 0.02 9 -1 9 C-1.125 2.25 -1.125 2.25 0 0 Z " fill="#E0D6C4" transform="translate(389,265)"/>
<path d="M0 0 C0.99 0 1.98 0 3 0 C3 4.29 3 8.58 3 13 C2.01 13 1.02 13 0 13 C0 8.71 0 4.42 0 0 Z " fill="#131313" transform="translate(157,242)"/>
<path d="M0 0 C0.66 0 1.32 0 2 0 C2 3.3 2 6.6 2 10 C4.31 10 6.62 10 9 10 C9 10.66 9 11.32 9 12 C6.03 12 3.06 12 0 12 C0 8.04 0 4.08 0 0 Z " fill="#040404" transform="translate(228,243)"/>
<path d="M0 0 C1.65 0 3.3 0 5 0 C5.625 2.375 5.625 2.375 6 5 C5.34 5.66 4.68 6.32 4 7 C3.01 6.67 2.02 6.34 1 6 C0.67 6.66 0.34 7.32 0 8 C0 5.36 0 2.72 0 0 Z " fill="#929292" transform="translate(224,363)"/>
<path d="M0 0 C0.66 0 1.32 0 2 0 C2 6.27 2 12.54 2 19 C1.67 19 1.34 19 1 19 C-2.26213592 4.52427184 -2.26213592 4.52427184 0 0 Z " fill="#F6F4F0" transform="translate(402,265)"/>
<path d="M0 0 C0.66 0 1.32 0 2 0 C2 3.96 2 7.92 2 12 C1.01 12 0.02 12 -1 12 C-1 10.02 -1 8.04 -1 6 C-2.65 6 -4.3 6 -6 6 C-6 5.67 -6 5.34 -6 5 C-4.35 4.67 -2.7 4.34 -1 4 C-0.67 2.68 -0.34 1.36 0 0 Z " fill="#0D0D0D" transform="translate(196,243)"/>
<path d="M0 0 C1.98 0 3.96 0 6 0 C4.68 0.33 3.36 0.66 2 1 C2 3.97 2 6.94 2 10 C3.32 10 4.64 10 6 10 C6 10.66 6 11.32 6 12 C4.02 12 2.04 12 0 12 C0 8.04 0 4.08 0 0 Z " fill="#000000" transform="translate(325,243)"/>
<path d="M0 0 C1.65 0 3.3 0 5 0 C5.33 1.65 5.66 3.3 6 5 C5.195625 5.12375 4.39125 5.2475 3.5625 5.375 C2.2940625 5.684375 2.2940625 5.684375 1 6 C0.67 6.66 0.34 7.32 0 8 C0 5.36 0 2.72 0 0 Z " fill="#969696" transform="translate(155,363)"/>
<path d="M0 0 C2.64 0 5.28 0 8 0 C8 3.63 8 7.26 8 11 C7.34 11 6.68 11 6 11 C6 8.03 6 5.06 6 2 C4.02 2 2.04 2 0 2 C0 1.34 0 0.68 0 0 Z " fill="#9E9E9E" transform="translate(416,258)"/>
<path d="M0 0 C1.98 0.495 1.98 0.495 4 1 C4.33 2.98 4.66 4.96 5 7 C3.35 7.33 1.7 7.66 0 8 C-1.125 2.25 -1.125 2.25 0 0 Z " fill="#585858" transform="translate(211,242)"/>
<path d="M0 0 C0.99 0 1.98 0 3 0 C3 3.96 3 7.92 3 12 C2.01 11.34 1.02 10.68 0 10 C-0.29296875 7.6171875 -0.29296875 7.6171875 -0.1875 4.875 C-0.16042969 3.96492188 -0.13335937 3.05484375 -0.10546875 2.1171875 C-0.07066406 1.41851562 -0.03585937 0.71984375 0 0 Z " fill="#EADCC2" transform="translate(393,265)"/>
<path d="M0 0 C0.66 0 1.32 0 2 0 C2 0.99 2 1.98 2 3 C3.32 3 4.64 3 6 3 C6.33 2.01 6.66 1.02 7 0 C7 2.64 7 5.28 7 8 C6.67 7.01 6.34 6.02 6 5 C4.68 5 3.36 5 2 5 C2 5.99 2 6.98 2 8 C1.34 8 0.68 8 0 8 C0 5.36 0 2.72 0 0 Z " fill="#828282" transform="translate(380,363)"/>
<path d="M0 0 C1.98 0 3.96 0 6 0 C4.68 0.33 3.36 0.66 2 1 C2 1.66 2 2.32 2 3 C2.99 3 3.98 3 5 3 C5 3.66 5 4.32 5 5 C4.01 5 3.02 5 2 5 C2 5.66 2 6.32 2 7 C3.32 7.33 4.64 7.66 6 8 C4.02 8 2.04 8 0 8 C0 5.36 0 2.72 0 0 Z " fill="#766D5C" transform="translate(208,363)"/>
<path d="M0 0 C1.98 0 3.96 0 6 0 C4.68 0.33 3.36 0.66 2 1 C2 1.66 2 2.32 2 3 C2.99 3 3.98 3 5 3 C5 3.66 5 4.32 5 5 C4.01 5 3.02 5 2 5 C2 5.66 2 6.32 2 7 C3.32 7.33 4.64 7.66 6 8 C4.02 8 2.04 8 0 8 C0 5.36 0 2.72 0 0 Z " fill="#787878" transform="translate(120,363)"/>
<path d="M0 0 C0.66 0 1.32 0 2 0 C2 3.3 2 6.6 2 10 C1.01 10.33 0.02 10.66 -1 11 C-1.0270043 9.54176788 -1.04639787 8.08339325 -1.0625 6.625 C-1.07410156 5.81289063 -1.08570313 5.00078125 -1.09765625 4.1640625 C-1 2 -1 2 0 0 Z " fill="#EDDFC7" transform="translate(385,265)"/>
<path d="M0 0 C1.98 0.495 1.98 0.495 4 1 C4.33 2.32 4.66 3.64 5 5 C4.34 5 3.68 5 3 5 C3 5.99 3 6.98 3 8 C2.01 8 1.02 8 0 8 C-1.125 2.25 -1.125 2.25 0 0 Z " fill="#606060" transform="translate(349,242)"/>
<path d="M0 0 C0.66 0 1.32 0 2 0 C2 2.31 2 4.62 2 7 C-0.64 7 -3.28 7 -6 7 C-6.33 6.34 -6.66 5.68 -7 5 C-4.69 5 -2.38 5 0 5 C0 3.35 0 1.7 0 0 Z " fill="#A5A5A5" transform="translate(411,223)"/>
<path d="M0 0 C3.63 0 7.26 0 11 0 C10.01 1.485 10.01 1.485 9 3 C6.0625 3.375 6.0625 3.375 3 3 C2.01 2.01 1.02 1.02 0 0 Z " fill="#AE9AC9" transform="translate(224,270)"/>
<path d="M0 0 C2.46278801 2.46278801 2.99771255 4.70676982 4 8 C2.68 7.67 1.36 7.34 0 7 C0 6.34 0 5.68 0 5 C-1.65 4.67 -3.3 4.34 -5 4 C-4.360625 3.71125 -3.72125 3.4225 -3.0625 3.125 C-0.84793921 2.17176549 -0.84793921 2.17176549 0 0 Z " fill="#191919" transform="translate(216,247)"/>
<path d="M0 0 C2.31 0.33 4.62 0.66 7 1 C7 1.66 7 2.32 7 3 C5.02 3 3.04 3 1 3 C0.67 3.66 0.34 4.32 0 5 C-0.66 4.67 -1.32 4.34 -2 4 C-1.34 2.68 -0.68 1.36 0 0 Z " fill="#2D2D2D" transform="translate(171,242)"/>
<path d="M0 0 C0.99 0 1.98 0 3 0 C2.34 2.97 1.68 5.94 1 9 C0.01 8.34 -0.98 7.68 -2 7 C-1.34 4.69 -0.68 2.38 0 0 Z " fill="#424242" transform="translate(313,242)"/>
<path d="M0 0 C-2.66666667 2.66666667 -5.33333333 5.33333333 -8 8 C-8.36075949 3.55063291 -8.36075949 3.55063291 -6.8125 1.1875 C-4.44017475 -0.36678206 -2.77958655 -0.22537188 0 0 Z " fill="#0B0B0B" transform="translate(283,243)"/>
<path d="M0 0 C1.65 1.32 3.3 2.64 5 4 C4.67 4.66 4.34 5.32 4 6 C3.67 5.67 3.34 5.34 3 5 C2.67 5.99 2.34 6.98 2 8 C1.34 8 0.68 8 0 8 C0 5.36 0 2.72 0 0 Z " fill="#787776" transform="translate(251,363)"/>
<path d="M0 0 C0.66 0 1.32 0 2 0 C2 1.65 2 3.3 2 5 C0.02 5 -1.96 5 -4 5 C-2.71937515 3.2925002 -1.38232443 1.62626404 0 0 Z " fill="#F5DDB2" transform="translate(381,270)"/>
<path d="M0 0 C0.93423645 3.01031744 1.04449911 3.86650268 0 7 C-1.32 6.67 -2.64 6.34 -4 6 C-4 5.01 -4 4.02 -4 3 C-3.34 3 -2.68 3 -2 3 C-1.34 2.01 -0.68 1.02 0 0 Z " fill="#040404" transform="translate(312,248)"/>
<path d="M0 0 C0.33 0.66 0.66 1.32 1 2 C4.02934491 2.65772428 4.02934491 2.65772428 7 3 C6.01 4.485 6.01 4.485 5 6 C2.525 5.01 2.525 5.01 0 4 C0 2.68 0 1.36 0 0 Z " fill="#121212" transform="translate(170,245)"/>
<path d="M0 0 C0.99 0 1.98 0 3 0 C3 1.98 3 3.96 3 6 C2.01 6.33 1.02 6.66 0 7 C0 4.69 0 2.38 0 0 Z " fill="#303030" transform="translate(264,248)"/>
<path d="M0 0 C0.33 0.66 0.66 1.32 1 2 C3.02463255 2.65213292 3.02463255 2.65213292 5 3 C4.360625 3.12375 3.72125 3.2475 3.0625 3.375 C2.381875 3.58125 1.70125 3.7875 1 4 C0.67 4.66 0.34 5.32 0 6 C-0.99 6 -1.98 6 -3 6 C-1.125 1.125 -1.125 1.125 0 0 Z " fill="#0D0D0D" transform="translate(347,249)"/>
<path d="M0 0 C0.66 0 1.32 0 2 0 C1.25 4.75 1.25 4.75 -1 7 C-1.66 7 -2.32 7 -3 7 C-1.125 1.125 -1.125 1.125 0 0 Z " fill="#252525" transform="translate(147,242)"/>
<path d="M0 0 C0.99 0 1.98 0 3 0 C3 2.31 3 4.62 3 7 C2.01 6.34 1.02 5.68 0 5 C-0.1875 2.375 -0.1875 2.375 0 0 Z " fill="#E3E2E0" transform="translate(397,265)"/>
<path d="M0 0 C0.33 0.99 0.66 1.98 1 3 C0.67 3.66 0.34 4.32 0 5 C1.32 4.67 2.64 4.34 4 4 C4 4.66 4 5.32 4 6 C-0.75 6.125 -0.75 6.125 -3 5 C-2.625 3.0625 -2.625 3.0625 -2 1 C-1.34 0.67 -0.68 0.34 0 0 Z " fill="#212121" transform="translate(349,245)"/>
</svg>
